<svg width="838" height="184" viewBox="0 0 838 184" fill="none" xmlns="http://www.w3.org/2000/svg">
<path d="M368.669 120.381L383.717 135.429H474.003V105.333H398.766V60.192H474.003V30.096H368.669V120.381ZM45.145 30.095C39.268 35.979 35.973 39.278 30.097 45.162V97.829H105.336V105.293H0V135.428H135.428V67.694H60.193V60.23L218.195 60.191V67.712H142.958V135.428H173.054V97.808H248.291V45.143L233.243 30.095H45.145ZM255.815 45.144V135.429H361.148V105.333H285.911V97.812H361.148V67.716H285.911V60.192H361.148V30.096H270.863L255.815 45.144ZM669.616 97.809V45.144L654.571 30.096H511.621V0H481.525V120.381L496.573 135.429H549.238V105.333H511.621V60.192H639.52V67.713H556.762V135.429H586.858V105.457L665.044 183.643L686.324 162.362L621.774 97.809H669.616Z" fill="#FFCD00"/>
<path d="M707.236 105.333V97.812H782.474V67.716H707.236V60.192H782.474V30.096H692.188L677.14 45.144V135.429H812.57V105.333H707.236ZM716.296 156.806L715.573 157.529H711.04V146.295H715.573L716.296 147.018V156.806ZM707.218 142.95V160.873H717.484L720.118 158.239V145.584L717.484 142.95H707.218ZM733.806 146.295H736.306V142.95H727.473V146.295H729.984V157.529H727.228V160.873H736.551V157.529H733.806V146.295ZM752.616 154.895L750.117 157.407H749.872L747.361 154.895V142.95H743.538V155.973L748.439 160.873H751.551L756.451 155.973V142.95H752.616V154.895ZM770.016 146.295H772.516V142.95H763.683V146.295H766.194V157.529H763.438V160.873H772.761V157.529H770.016V146.295ZM789.206 156.806L788.483 157.529H783.95V146.295H788.483L789.206 147.018V156.806ZM780.128 142.95V160.873H790.394L793.028 158.239V145.584L790.394 142.95H780.128ZM804.806 153.228H812.574V149.884H804.806V146.295H812.574V142.95H800.984V160.873H812.574V157.529H804.806V153.228ZM836.206 160.97V155.767L833.959 160.97H833.263L831.016 155.779V160.97H829.747V154.088H831.544L833.611 158.821L835.678 154.088H837.475V160.97H836.206ZM824.838 160.97V155.263H822.536V154.1H828.397V155.263H826.095V160.97H824.838Z" fill="#FFCD00"/>
</svg>
